HIERARCHY
ROOT mixamorig:Hips
{
	OFFSET 0.00 0.00 0.00
	CHANNELS 6 Xposition Yposition Zposition Zrotation Yrotation Xrotation
	JOINT mixamorig:Spine
	{
		OFFSET	0.0125	10.4452	-0.9963
		CHANNELS 3 Zrotation Yrotation Xrotation
		JOINT mixamorig:Spine1
		{
			OFFSET	0.0145	12.1861	-1.1623
			CHANNELS 3 Zrotation Yrotation Xrotation
			JOINT mixamorig:Spine2
			{
				OFFSET	0.0166	13.9270	-1.3284
				CHANNELS 3 Zrotation Yrotation Xrotation
				JOINT mixamorig:Neck
				{
					OFFSET	0.0187	15.6679	-1.4944
					CHANNELS 3 Zrotation Yrotation Xrotation
					JOINT mixamorig:Head
					{
						OFFSET	-0.0000	7.0878	0.8887
						CHANNELS 3 Zrotation Yrotation Xrotation
						End Site
						{
							OFFSET -0.0000 21.3244 2.6737
						}
					}
				}
				JOINT mixamorig:LeftShoulder
				{
					OFFSET	6.2331	12.5732	-1.4620
					CHANNELS 3 Zrotation Yrotation Xrotation
					JOINT mixamorig:LeftArm
					{
						OFFSET	12.4288	-6.1895	0.0647
						CHANNELS 3 Zrotation Yrotation Xrotation
						JOINT mixamorig:LeftForeArm
						{
							OFFSET	12.5822	-17.6989	-0.0651
							CHANNELS 3 Zrotation Yrotation Xrotation
							JOINT mixamorig:LeftHand
							{
								OFFSET	10.9147	-21.0687	11.6035
								CHANNELS 3 Zrotation Yrotation Xrotation
								JOINT mixamorig:LeftHandThumb1
								{
									OFFSET	-1.7358	-3.6666	2.6651
									CHANNELS 3 Zrotation Yrotation Xrotation
									JOINT mixamorig:LeftHandThumb2
									{
										OFFSET	-1.3886	-2.9333	2.1321
										CHANNELS 3 Zrotation Yrotation Xrotation
										JOINT mixamorig:LeftHandThumb3
										{
											OFFSET	-1.7918	-3.3945	1.6896
											CHANNELS 3 Zrotation Yrotation Xrotation
											End Site
											{
												OFFSET -1.1716 -2.6948 1.2270
											}
										}
									}
								}
								JOINT mixamorig:LeftHandIndex1
								{
									OFFSET	1.2042	-11.6606	7.5887
									CHANNELS 3 Zrotation Yrotation Xrotation
									JOINT mixamorig:LeftHandIndex2
									{
										OFFSET	-0.0885	-2.2672	1.0042
										CHANNELS 3 Zrotation Yrotation Xrotation
										JOINT mixamorig:LeftHandIndex3
										{
											OFFSET	-0.3002	-1.9399	0.5096
											CHANNELS 3 Zrotation Yrotation Xrotation
											End Site
											{
												OFFSET -0.2176 -2.6233 0.6157
											}
										}
									}
								}
								JOINT mixamorig:LeftHandMiddle1
								{
									OFFSET	3.0635	-12.2364	5.5160
									CHANNELS 3 Zrotation Yrotation Xrotation
									JOINT mixamorig:LeftHandMiddle2
									{
										OFFSET	0.4236	-2.6124	0.6959
										CHANNELS 3 Zrotation Yrotation Xrotation
										JOINT mixamorig:LeftHandMiddle3
										{
											OFFSET	-0.0346	-2.2988	0.2871
											CHANNELS 3 Zrotation Yrotation Xrotation
											End Site
											{
												OFFSET 0.2796 -2.9102 0.5104
											}
										}
									}
								}
								JOINT mixamorig:LeftHandRing1
								{
									OFFSET	4.3250	-12.3373	2.7720
									CHANNELS 3 Zrotation Yrotation Xrotation
									JOINT mixamorig:LeftHandRing2
									{
										OFFSET	0.0343	-2.6042	-0.1448
										CHANNELS 3 Zrotation Yrotation Xrotation
										JOINT mixamorig:LeftHandRing3
										{
											OFFSET	-0.4080	-2.1150	-0.2682
											CHANNELS 3 Zrotation Yrotation Xrotation
											End Site
											{
												OFFSET -0.1807 -2.8052 -0.0224
											}
										}
									}
								}
								JOINT mixamorig:LeftHandPinky1
								{
									OFFSET	4.5316	-12.9281	-0.0800
									CHANNELS 3 Zrotation Yrotation Xrotation
									JOINT mixamorig:LeftHandPinky2
									{
										OFFSET	-0.2254	-1.6990	-0.6318
										CHANNELS 3 Zrotation Yrotation Xrotation
										JOINT mixamorig:LeftHandPinky3
										{
											OFFSET	-0.4223	-1.3628	-0.4724
											CHANNELS 3 Zrotation Yrotation Xrotation
											End Site
											{
												OFFSET -0.7253 -1.5757 -0.7080
											}
										}
									}
								}
							}
						}
					}
				}
				JOINT mixamorig:RightShoulder
				{
					OFFSET	-6.1994	12.5731	-1.5268
					CHANNELS 3 Zrotation Yrotation Xrotation
					JOINT mixamorig:RightArm
					{
						OFFSET	-12.4361	-6.1894	-0.0647
						CHANNELS 3 Zrotation Yrotation Xrotation
						JOINT mixamorig:RightForeArm
						{
							OFFSET	-12.5822	-17.6989	0.1601
							CHANNELS 3 Zrotation Yrotation Xrotation
							JOINT mixamorig:RightHand
							{
								OFFSET	-10.9147	-21.0687	11.5252
								CHANNELS 3 Zrotation Yrotation Xrotation
								JOINT mixamorig:RightHandThumb1
								{
									OFFSET	1.8326	-3.8313	2.8102
									CHANNELS 3 Zrotation Yrotation Xrotation
									JOINT mixamorig:RightHandThumb2
									{
										OFFSET	1.4660	-3.0650	2.2481
										CHANNELS 3 Zrotation Yrotation Xrotation
										JOINT mixamorig:RightHandThumb3
										{
											OFFSET	1.7022	-3.2799	1.5927
											CHANNELS 3 Zrotation Yrotation Xrotation
											End Site
											{
												OFFSET 0.9222 -2.4964 1.2260
											}
										}
									}
								}
								JOINT mixamorig:RightHandIndex1
								{
									OFFSET	-1.2113	-11.6910	7.5909
									CHANNELS 3 Zrotation Yrotation Xrotation
									JOINT mixamorig:RightHandIndex2
									{
										OFFSET	0.1340	-2.2478	1.0804
										CHANNELS 3 Zrotation Yrotation Xrotation
										JOINT mixamorig:RightHandIndex3
										{
											OFFSET	0.2833	-1.9852	0.4907
											CHANNELS 3 Zrotation Yrotation Xrotation
											End Site
											{
												OFFSET 0.2347 -2.6272 0.4660
											}
										}
									}
								}
								JOINT mixamorig:RightHandMiddle1
								{
									OFFSET	-3.1183	-12.4952	5.5338
									CHANNELS 3 Zrotation Yrotation Xrotation
									JOINT mixamorig:RightHandMiddle2
									{
										OFFSET	-0.3657	-2.5472	0.7803
										CHANNELS 3 Zrotation Yrotation Xrotation
										JOINT mixamorig:RightHandMiddle3
										{
											OFFSET	0.0506	-2.2906	0.2557
											CHANNELS 3 Zrotation Yrotation Xrotation
											End Site
											{
												OFFSET -0.1704 -2.9156 0.4516
											}
										}
									}
								}
								JOINT mixamorig:RightHandRing1
								{
									OFFSET	-4.3615	-12.5986	2.8743
									CHANNELS 3 Zrotation Yrotation Xrotation
									JOINT mixamorig:RightHandRing2
									{
										OFFSET	0.0394	-2.4666	-0.2159
										CHANNELS 3 Zrotation Yrotation Xrotation
										JOINT mixamorig:RightHandRing3
										{
											OFFSET	0.4323	-2.1153	-0.2184
											CHANNELS 3 Zrotation Yrotation Xrotation
											End Site
											{
												OFFSET 0.0751 -2.6586 -0.0626
											}
										}
									}
								}
								JOINT mixamorig:RightHandPinky1
								{
									OFFSET	-4.4132	-11.5032	0.4194
									CHANNELS 3 Zrotation Yrotation Xrotation
									JOINT mixamorig:RightHandPinky2
									{
										OFFSET	-0.1665	-2.1237	-0.7208
										CHANNELS 3 Zrotation Yrotation Xrotation
										JOINT mixamorig:RightHandPinky3
										{
											OFFSET	0.5102	-1.7553	-0.6317
											CHANNELS 3 Zrotation Yrotation Xrotation
											End Site
											{
												OFFSET 0.3407 -2.2265 -0.9448
											}
										}
									}
								}
							}
						}
					}
				}
			}
		}
	}
	JOINT mixamorig:LeftUpLeg
	{
		OFFSET	10.1286	-5.8029	-0.5827
		CHANNELS 3 Zrotation Yrotation Xrotation
		JOINT mixamorig:LeftLeg
		{
			OFFSET	4.2353	-40.9156	0.1368
			CHANNELS 3 Zrotation Yrotation Xrotation
			JOINT mixamorig:LeftFoot
			{
				OFFSET	2.7471	-36.6710	-5.9597
				CHANNELS 3 Zrotation Yrotation Xrotation
				JOINT mixamorig:LeftToeBase
				{
					OFFSET	2.4527	-12.3426	15.4410
					CHANNELS 3 Zrotation Yrotation Xrotation
					End Site
					{
						OFFSET 1.4532 0.2140 7.5769
					}
				}
			}
		}
	}
	JOINT mixamorig:RightUpLeg
	{
		OFFSET	-10.0150	-5.8029	-0.7207
		CHANNELS 3 Zrotation Yrotation Xrotation
		JOINT mixamorig:RightLeg
		{
			OFFSET	-4.2353	-40.9157	0.2580
			CHANNELS 3 Zrotation Yrotation Xrotation
			JOINT mixamorig:RightFoot
			{
				OFFSET	-2.7471	-36.6708	-6.0475
				CHANNELS 3 Zrotation Yrotation Xrotation
				JOINT mixamorig:RightToeBase
				{
					OFFSET	-2.4527	-12.3428	15.3607
					CHANNELS 3 Zrotation Yrotation Xrotation
					End Site
					{
						OFFSET -1.4532 0.2139 7.5074
					}
				}
			}
		}
	}
}
MOTION
Frames: 4
Frame Time: 0.0333333
1.2746 90.5427 1.6717 0.3161 -32.4882 -1.6922 1.6710 16.0253 5.4527 0.9035 0.8485 4.3671 0.9143 0.8686 4.3611 -2.6022 1.4178 0.8931 -8.8658 5.0472 0.1460 2.1873 -13.2483 3.4678 -10.2742 -8.4128 -40.8149 40.0294 -27.4323 -101.6555 22.8886 -0.1383 5.8810 3.6160 -2.7030 13.2209 6.8593 5.2537 10.8707 31.9400 1.4483 45.4003 -54.3320 3.3256 46.0729 -69.0843 1.8907 47.8167 -47.8763 -1.9280 31.4059 -65.6700 6.0731 36.8151 -67.7850 13.4216 37.1899 -50.7746 6.9461 28.9869 -57.6166 1.0977 18.6568 -66.0973 24.2951 32.3387 -52.4324 13.8540 28.9863 -52.0598 -0.5707 4.7520 -68.3152 33.4577 27.4037 -36.1528 12.9454 17.3583 -6.9452 18.9603 -0.8652 0.1121 27.7968 -35.9484 -36.9725 27.7438 -95.0996 -25.2525 -34.2123 -10.3041 -0.0592 -6.2518 24.5228 -9.9670 -3.6861 0.8725 -47.1907 22.5047 22.9868 54.2947 -7.8517 55.4147 63.6348 -1.2010 49.0435 45.1778 -0.0041 32.7406 65.1478 -12.2430 45.4295 61.3624 -12.3789 39.6945 47.8015 -7.7912 32.6310 56.7367 -5.5203 23.6681 60.4586 -25.2965 40.6156 54.1558 -15.1877 30.9917 64.0709 -5.4640 9.9275 50.5253 -31.9108 32.0534 50.1594 -23.6109 16.3492 3.0556 15.0745 -23.5503 -1.9998 -6.6968 39.5263 -3.2026 -3.3767 -13.9199 0.0000 -0.0000 -0.0852 -2.1755 -7.7970 -21.1752 -4.0157 -7.6593 41.5599 2.0347 1.3412 -18.0331 0.0000 0.0000 0.0000 
0.4870 89.8146 1.1037 -0.0937 -29.3827 -2.7080 2.5107 15.8151 5.8278 1.2780 0.6798 4.6419 1.2886 0.7114 4.6347 -2.8154 1.3471 0.9659 -8.5324 4.3652 0.6801 1.3575 -12.9434 3.5732 -11.1238 -9.7248 -38.8815 39.7933 -27.4682 -101.1432 23.7745 -0.2623 4.1915 3.6160 -2.7030 13.2209 6.8594 5.2537 10.8707 31.9400 1.4483 45.4003 -54.3320 3.3256 46.0729 -69.0843 1.8907 47.8167 -47.8763 -1.9280 31.4059 -65.6700 6.0730 36.8151 -67.7850 13.4216 37.1899 -50.7747 6.9461 28.9869 -57.6167 1.0977 18.6568 -66.0973 24.2951 32.3387 -52.4324 13.8540 28.9863 -52.0598 -0.5707 4.7521 -68.3152 33.4577 27.4037 -36.1528 12.9454 17.3583 -7.8505 18.5158 -1.1362 0.3744 27.6229 -35.1091 -37.0312 27.7406 -95.2256 -25.5122 -33.6466 -10.8638 -0.0592 -6.2518 24.5228 -9.9670 -3.6862 0.8725 -47.1907 22.5047 22.9868 54.2947 -7.8517 55.4147 63.6348 -1.2010 49.0435 45.1778 -0.0041 32.7406 65.1478 -12.2430 45.4295 61.3624 -12.3789 39.6945 47.8015 -7.7912 32.6310 56.7366 -5.5203 23.6682 60.4586 -25.2965 40.6156 54.1558 -15.1877 30.9917 64.0709 -5.4640 9.9275 50.5253 -31.9108 32.0535 50.1594 -23.6109 16.3492 3.8084 14.5582 -25.0950 -2.1448 -6.1599 44.8390 -2.2183 -6.5199 -13.4063 0.0000 -0.0000 -6.1063 -3.1017 -9.8103 -18.7605 -3.3382 -8.9041 43.4246 1.9691 1.4583 -20.7159 0.0000 0.0000 -0.0001 
-0.2634 89.4582 0.5713 -0.1740 -27.1462 -3.4213 3.2899 15.7716 6.0397 1.5798 0.6827 4.8089 1.5916 0.7215 4.7997 -3.1020 1.3152 1.2343 -8.1351 3.8101 1.4580 0.4942 -12.0370 3.5648 -12.1832 -11.5844 -35.9189 39.5354 -27.5051 -100.5842 24.7945 -0.4223 2.3754 3.6160 -2.7030 13.2209 6.8594 5.2537 10.8708 31.9400 1.4483 45.4003 -54.3320 3.3256 46.0729 -69.0843 1.8907 47.8167 -47.8763 -1.9280 31.4059 -65.6700 6.0731 36.8151 -67.7850 13.4216 37.1899 -50.7746 6.9461 28.9869 -57.6167 1.0977 18.6568 -66.0973 24.2951 32.3387 -52.4324 13.8540 28.9863 -52.0598 -0.5707 4.7520 -68.3152 33.4577 27.4037 -36.1528 12.9454 17.3583 -8.0072 18.3988 -1.1822 0.5768 27.4233 -33.6536 -37.1308 27.7351 -95.4395 -25.9607 -33.1294 -11.1697 -0.0592 -6.2518 24.5228 -9.9670 -3.6862 0.8725 -47.1907 22.5047 22.9868 54.2947 -7.8517 55.4147 63.6348 -1.2010 49.0435 45.1778 -0.0041 32.7406 65.1478 -12.2431 45.4295 61.3624 -12.3789 39.6945 47.8015 -7.7912 32.6310 56.7366 -5.5203 23.6682 60.4586 -25.2965 40.6156 54.1558 -15.1877 30.9917 64.0709 -5.4640 9.9275 50.5253 -31.9108 32.0534 50.1594 -23.6109 16.3492 4.2717 14.0114 -27.9292 -2.4610 -5.1019 50.4833 -0.9443 -9.1102 -9.1659 0.0108 0.0017 -9.6195 -4.0157 -11.2882 -16.4303 -3.2615 -10.1456 44.0487 2.3360 1.6106 -22.4793 0.0000 0.0000 0.0000 
-0.9801 89.3345 0.0399 0.1879 -26.4175 -4.0582 3.7813 15.9942 6.0665 1.7051 0.9424 4.8503 1.7201 0.9836 4.8375 -3.3699 1.2992 1.6214 -7.6388 3.3157 2.3684 -0.2068 -10.6264 3.4196 -13.1934 -13.6016 -32.2371 39.1818 -27.5519 -99.8192 25.5489 -0.6960 0.9713 3.6160 -2.7030 13.2209 6.8594 5.2537 10.8708 31.9400 1.4483 45.4003 -54.3320 3.3256 46.0729 -69.0843 1.8907 47.8167 -47.8763 -1.9280 31.4059 -65.6700 6.0731 36.8151 -67.7850 13.4216 37.1899 -50.7746 6.9461 28.9869 -57.6167 1.0977 18.6568 -66.0973 24.2951 32.3387 -52.4324 13.8540 28.9863 -52.0598 -0.5707 4.7520 -68.3152 33.4577 27.4037 -36.1528 12.9454 17.3583 -7.4762 18.6768 -1.0353 0.9002 27.1960 -31.7820 -37.2576 27.7276 -95.7119 -26.4088 -32.8269 -11.0964 -0.0592 -6.2518 24.5228 -9.9670 -3.6862 0.8725 -47.1907 22.5047 22.9868 54.2947 -7.8517 55.4147 63.6348 -1.2010 49.0435 45.1778 -0.0041 32.7406 65.1478 -12.2430 45.4295 61.3624 -12.3789 39.6945 47.8016 -7.7912 32.6310 56.7366 -5.5203 23.6681 60.4586 -25.2966 40.6156 54.1558 -15.1877 30.9917 64.0709 -5.4640 9.9275 50.5253 -31.9108 32.0534 50.1594 -23.6109 16.3492 4.4900 13.8364 -30.3391 -2.9277 -4.0070 54.7286 0.0804 -10.7952 -3.1589 0.0898 0.0147 -17.3516 -4.5074 -11.7160 -14.7007 -3.7853 -10.2131 44.1959 3.0349 1.7680 -23.6813 -0.0000 0.0000 0.0000 
